<svg xmlns="http://www.w3.org/2000/svg" xml:space="preserve" viewBox="0 0 512 512"><path d="M510.704 302.195c-19.899-31.901-47.686-58.561-80.359-77.098-33.706-19.124-72.125-29.231-111.101-29.231-2.533 0-5.065.048-7.592.132-8.115-20.231-20.448-38.937-35.951-54.405-30.5-30.422-71.024-47.177-114.106-47.177-43.077 0-83.604 16.754-114.118 47.177C16.861 172.13 0 212.761 0 255.999c0 43.239 16.861 83.869 47.478 114.407 30.512 30.422 71.039 47.174 114.117 47.174 24.962 0 49.749-5.834 71.961-16.885a226.01 226.01 0 0 0 85.688 16.888c38.976 0 77.394-10.109 111.101-29.233 32.672-18.537 60.46-45.197 80.359-77.098a8.56 8.56 0 0 0 0-9.057zM293.645 197.351c-18.093 2.064-35.864 6.278-52.878 12.582 6.156-18.326 15.951-35.22 28.893-49.789a146.014 146.014 0 0 1 23.985 37.207zm-123.491-85.559c32.543 1.89 63.056 14.533 87.399 36.219-18.108 20.127-30.806 44.294-37.042 70.583a222.328 222.328 0 0 0-12.368 6.503c-11.435 6.488-22.253 13.99-32.362 22.342h-5.627V111.792zm-17.118-.001v135.648h-46.221c-1.922-37.09-16.318-71.851-41.172-99.442 24.35-21.678 54.859-34.316 87.393-36.206zM53.52 160.127c21.644 24.33 34.258 54.798 36.145 87.312H17.376c1.886-32.515 14.502-62.983 36.144-87.312zm-36.144 104.43h72.289c-1.886 32.515-14.501 62.983-36.145 87.314-21.643-24.33-34.258-54.8-36.144-87.314zm135.66 135.648c-32.534-1.89-63.044-14.527-87.393-36.205 24.854-27.589 39.25-62.352 41.172-99.443h46.221v4.453a226.131 226.131 0 0 0-25.251 33.186 8.56 8.56 0 0 0 0 9.059 226.114 226.114 0 0 0 25.251 33.184v55.766zm-7.819-93.48c8.461-12.813 18.335-24.635 29.35-35.269v70.539c-11.015-10.636-20.89-22.458-29.35-35.27zm24.937 93.48v-39c11.68 10.309 24.404 19.439 37.989 27.148 1.615.916 3.25 1.793 4.887 2.668a145.209 145.209 0 0 1-42.876 9.184zm276.65-43.364a208.792 208.792 0 0 1-24.906 16.624c-31.136 17.666-66.633 27.003-102.654 27.003s-71.518-9.337-102.654-27.003a208.459 208.459 0 0 1-24.905-16.624v-100.23a208.178 208.178 0 0 1 24.905-16.624c31.136-17.664 66.633-27.003 102.654-27.003 36.02 0 71.518 9.337 102.654 27.003a208.317 208.317 0 0 1 24.906 16.625v100.229zm17.117-14.848v-70.538c11.015 10.635 20.888 22.456 29.35 35.268-8.461 12.814-18.334 24.636-29.35 35.27z"/><path d="M427.067 298.166h-16.523v-11.905a8.559 8.559 0 0 0-17.118 0v11.905h-24.254v-11.905a8.559 8.559 0 0 0-17.118 0v11.905h-24.252v-11.905a8.559 8.559 0 0 0-17.118 0v11.905h-24.252v-11.905a8.559 8.559 0 0 0-17.118 0v11.905H245.06v-11.905a8.559 8.559 0 0 0-17.118 0v11.905H211.42a8.559 8.559 0 0 0 0 17.118h16.523v11.904a8.559 8.559 0 0 0 17.118 0v-11.904h24.254v11.904a8.559 8.559 0 0 0 17.118 0v-11.904h24.252v11.904a8.559 8.559 0 0 0 17.118 0v-11.904h24.252v11.904a8.559 8.559 0 0 0 17.118 0v-11.904h24.253v11.904a8.559 8.559 0 0 0 17.118 0v-11.904h16.523a8.559 8.559 0 0 0 0-17.118z"/></svg>