<svg xmlns="http://www.w3.org/2000/svg" xml:space="preserve" viewBox="0 0 512 512"><path fill="#f7b239" d="M232.404 395.957c-19.646 10.425-41.76 16.825-65.221 18.112-2.928.165-5.88.248-8.855.248-2.975 0-5.927-.083-8.855-.248-36.979-2.031-70.569-16.754-96.497-39.907a142.094 142.094 0 0 1-6.458-6.069 156.5 156.5 0 0 1-6.092-6.435C17.12 335.684 2.291 301.975.248 264.855.083 261.927 0 258.975 0 256c0-2.975.083-5.927.248-8.855 2.043-37.12 16.872-70.829 40.178-96.804a156.5 156.5 0 0 1 6.092-6.435c2.09-2.09 4.25-4.121 6.458-6.069 25.928-23.153 59.518-37.876 96.497-39.907 2.928-.165 5.88-.248 8.855-.248 2.975 0 5.927.083 8.855.248 36.967 2.031 70.557 16.754 96.485 39.907a142.094 142.094 0 0 1 6.458 6.069 164.785 164.785 0 0 1 6.104 6.423c13.637 15.219 24.381 33.083 31.359 52.741-28.666 1.736-93.91 184.788-75.185 192.887z"/><path fill="#e09b2d" d="M116.626 256c0-66.843 41.426-124.008 100.004-147.228-18.047-7.154-37.72-11.089-58.312-11.089C70.881 97.683 0 168.564 0 256s70.881 158.317 158.317 158.317c20.593 0 40.266-3.935 58.312-11.089-58.577-23.22-100.003-80.385-100.003-147.228z"/><g fill="#b27214"><path d="M276.231 150.33c-20.615 20.626-34.653 46.53-40.603 74.926l-1.818 8.666-17.332-3.636 1.818-8.666c6.647-31.748 22.338-60.722 45.373-83.781a142.094 142.094 0 0 1 6.458 6.069c2.09 2.077 4.12 4.225 6.104 6.422z"/><path d="M245.38 247.145v17.71h-78.196v149.214c-2.928.165-5.88.248-8.855.248-2.975 0-5.927-.083-8.855-.248V264.855h-47.817c-2.149 41.3-19.221 79.825-48.679 109.307a142.094 142.094 0 0 1-6.458-6.069 156.5 156.5 0 0 1-6.092-6.435c26.117-26.128 41.359-60.214 43.484-96.804H.248A157.304 157.304 0 0 1 0 256c0-2.975.083-5.927.248-8.855h83.663c-2.125-36.589-17.368-70.675-43.484-96.804a156.5 156.5 0 0 1 6.092-6.435c2.09-2.09 4.25-4.121 6.458-6.069 29.458 29.481 46.53 68.007 48.679 109.307h47.817V97.931c2.928-.165 5.88-.248 8.855-.248 2.975 0 5.927.083 8.855.248v149.214h78.197z"/></g><g fill="#995c0d"><path d="M512 308.481a225.287 225.287 0 0 1-40.887 48.608 206.893 206.893 0 0 1-8.855 7.533V252.34a206.28 206.28 0 0 1 8.855 7.533A225.287 225.287 0 0 1 512 308.481zM180.608 252.34v112.282a206.28 206.28 0 0 1-8.855-7.533 225.311 225.311 0 0 1-40.887-48.608 225.287 225.287 0 0 1 40.887-48.608 206.28 206.28 0 0 1 8.855-7.533z"/></g><path fill="#b27214" d="M462.258 252.328v112.306a204.463 204.463 0 0 1-8.855 6.777c-37.038 26.99-82.635 42.906-131.964 42.906-31.642 0-61.738-6.553-89.035-18.359a223.476 223.476 0 0 1-42.941-24.534 214.824 214.824 0 0 1-8.855-6.789V252.328a213.945 213.945 0 0 1 8.855-6.789 224.555 224.555 0 0 1 37.498-22.102c24.759-11.5 51.962-18.631 80.628-20.367 4.581-.283 9.197-.425 13.849-.425 49.329 0 94.926 15.915 131.964 42.906a203.088 203.088 0 0 1 8.856 6.777z"/><g fill="#844908"><path d="M432.989 299.626h-17.096v-12.314a8.856 8.856 0 0 0-17.71 0v12.314h-25.089v-12.314a8.856 8.856 0 0 0-17.71 0v12.314h-25.089v-12.314a8.856 8.856 0 0 0-17.71 0v12.314h-25.101v-12.314a8.856 8.856 0 0 0-17.71 0v12.314h-25.089v-12.314a8.856 8.856 0 0 0-17.71 0v12.314h-17.096a8.856 8.856 0 0 0 0 17.71h17.096v12.314a8.856 8.856 0 0 0 17.71 0v-12.314h25.089v12.314a8.856 8.856 0 0 0 17.71 0v-12.314h25.101v12.314a8.856 8.856 0 0 0 17.71 0v-12.314h25.089v12.314a8.856 8.856 0 0 0 17.71 0v-12.314h25.089v12.314a8.856 8.856 0 0 0 17.71 0v-12.314h17.096a8.856 8.856 0 0 0 0-17.71zM189.463 245.539v125.884a214.824 214.824 0 0 1-8.855-6.789v-.012a206.28 206.28 0 0 1-8.855-7.533v-97.217a206.893 206.893 0 0 1 8.855-7.533v-.012a214.8 214.8 0 0 1 8.855-6.788zM471.113 259.873v97.217a206.893 206.893 0 0 1-8.855 7.533v.012a204.463 204.463 0 0 1-8.855 6.777v-125.86a203.665 203.665 0 0 1 8.855 6.777v.012a205.54 205.54 0 0 1 8.855 7.532z"/></g></svg>