<svg width="173" height="169" viewBox="0 0 173 169" fill="none" xmlns="http://www.w3.org/2000/svg">
<path d="M148.313 17.4945H137.82C134.037 17.4945 130.971 20.5609 130.971 24.3435V62.4846C130.971 66.2672 134.037 69.3335 137.82 69.3335H148.313C152.096 69.3335 155.162 66.2672 155.162 62.4846V24.3435C155.162 20.5609 152.096 17.4945 148.313 17.4945Z" fill="#156351"/>
<path d="M165.573 66.7056L101.563 2.68955C99.8319 0.967004 97.4891 0 95.047 0C92.6049 0 90.2621 0.967004 88.531 2.68955L24.522 66.7056C20.616 71.0498 18.3144 76.5999 18 82.4335V93.7095C52.9704 119.728 95.4128 133.747 139 133.677C150.085 133.679 161.152 132.778 172.091 130.983V82.4335C171.773 76.6015 169.474 71.0528 165.573 66.7056Z" fill="#156351"/>
<rect x="9" y="69" width="137" height="81" fill="#AC7455"/>
<path d="M9.6875 76.1548C18.2609 73.4442 30.5544 70.5211 42.5088 69.6127C55.3931 68.631 66.3206 70.0742 72.6562 75.1218V146.521C63.5984 142.638 52.1188 142.104 41.5303 142.909C30.0991 143.789 18.5709 146.287 9.6875 148.851V76.1548ZM82.3438 75.1218C88.6794 70.0742 99.6069 68.631 112.491 69.6127C124.446 70.5211 136.739 73.4442 145.312 76.1548V148.851C136.419 146.287 124.901 143.781 113.47 142.917C102.872 142.104 91.4016 142.631 82.3438 146.521V75.1218ZM77.5 68.4991C67.9578 62.294 54.1241 61.3709 41.5303 62.3233C26.8634 63.4442 12.0609 67.2464 2.83844 70.4185C1.99222 70.7096 1.27464 71.1786 0.771328 71.7697C0.268021 72.3608 0.000257411 73.0489 0 73.7519L0 154.338C0.000224382 154.951 0.203797 155.554 0.592072 156.092C0.980346 156.63 1.54091 157.086 2.22242 157.417C2.90392 157.749 3.68459 157.946 4.4929 157.99C5.30121 158.035 6.11134 157.925 6.84906 157.671C15.3934 154.741 29.1594 151.217 42.4991 150.199C56.1488 149.159 67.5897 150.836 73.7219 156.624C74.1757 157.052 74.7509 157.397 75.4048 157.634C76.0587 157.871 76.7747 157.994 77.5 157.994C78.2253 157.994 78.9413 157.871 79.5952 157.634C80.2491 157.397 80.8243 157.052 81.2781 156.624C87.4103 150.836 98.8513 149.159 112.491 150.199C125.841 151.217 139.616 154.741 148.151 157.671C148.889 157.925 149.699 158.035 150.507 157.99C151.315 157.946 152.096 157.749 152.778 157.417C153.459 157.086 154.02 156.63 154.408 156.092C154.796 155.554 155 154.951 155 154.338V73.7519C155 73.0489 154.732 72.3608 154.229 71.7697C153.725 71.1786 153.008 70.7096 152.162 70.4185C142.939 67.2464 128.137 63.4442 113.47 62.3233C100.876 61.3636 87.0422 62.294 77.5 68.4991Z" fill="#F8AE55"/>
</svg>
