<svg  viewBox="0 0 173 169" fill="none" xmlns="http://www.w3.org/2000/svg">
<path d="M148.313 17.4945H137.82C134.037 17.4945 130.971 20.5609 130.971 24.3435V62.4846C130.971 66.2672 134.037 69.3335 137.82 69.3335H148.313C152.096 69.3335 155.162 66.2672 155.162 62.4846V24.3435C155.162 20.5609 152.096 17.4945 148.313 17.4945Z" fill="#156351"/>
<path d="M165.573 66.7056L101.563 2.68955C99.8319 0.967004 97.4891 0 95.047 0C92.6049 0 90.2621 0.967004 88.531 2.68955L24.522 66.7056C20.616 71.0498 18.3144 76.5999 18 82.4335V93.7095C52.9704 119.728 95.4128 133.747 139 133.677C150.085 133.679 161.152 132.778 172.091 130.983V82.4335C171.773 76.6015 169.474 71.0528 165.573 66.7056Z" fill="#156351"/>
<g clip-path="url(#clip0_304_459)">
<rect x="9" y="69" width="137" height="81" fill="#AC7455"/>
<path d="M32.2744 101.978C32.4443 101.96 32.6318 101.972 32.8369 102.013C33.042 102.048 33.2471 102.104 33.4521 102.18C33.6572 102.256 33.8564 102.347 34.0498 102.452C34.2432 102.558 34.4131 102.672 34.5596 102.795C34.7119 102.912 34.832 103.032 34.9199 103.155C35.0137 103.278 35.0605 103.396 35.0605 103.507C35.0605 103.671 35.0312 103.853 34.9727 104.052C34.9199 104.245 34.8525 104.433 34.7705 104.614C34.6943 104.79 34.6064 104.945 34.5068 105.08C34.4131 105.215 34.3281 105.3 34.252 105.335C34.1289 105.382 33.9795 105.432 33.8037 105.484C33.6279 105.531 33.4375 105.581 33.2324 105.634C33.0332 105.687 32.8252 105.745 32.6084 105.81C32.3916 105.868 32.1807 105.933 31.9756 106.003C31.5127 106.173 31.1055 106.34 30.7539 106.504C30.4082 106.668 30.1387 106.809 29.9453 106.926C30.1094 106.979 30.2969 107.037 30.5078 107.102C30.7188 107.16 30.9326 107.228 31.1494 107.304C31.3721 107.38 31.5889 107.462 31.7998 107.55C32.0166 107.638 32.207 107.734 32.3711 107.84C32.5352 107.945 32.667 108.06 32.7666 108.183C32.8721 108.3 32.9248 108.426 32.9248 108.561C32.9248 108.695 32.9072 108.836 32.8721 108.982C32.8428 109.123 32.8018 109.267 32.749 109.413C32.6963 109.56 32.6348 109.7 32.5645 109.835C32.5 109.976 32.4326 110.107 32.3623 110.23C32.1338 110.477 31.8203 110.72 31.4219 110.96C31.0293 111.206 30.5811 111.426 30.0771 111.619C29.5732 111.812 29.0283 111.968 28.4424 112.085C27.8564 112.208 27.2559 112.27 26.6406 112.27C25.9023 112.27 25.2783 112.17 24.7686 111.971C24.2646 111.777 23.8545 111.517 23.5381 111.188C23.2275 110.86 23.0049 110.482 22.8701 110.055C22.7354 109.633 22.668 109.193 22.668 108.736C22.668 108.379 22.6973 108.03 22.7559 107.69C22.8145 107.351 22.8848 107.034 22.9668 106.741C23.0547 106.448 23.1484 106.179 23.248 105.933C23.3477 105.687 23.4414 105.476 23.5293 105.3C23.5996 105.165 23.667 105.074 23.7314 105.027C23.8018 104.975 23.9189 104.948 24.083 104.948C24.3174 104.948 24.4346 105.007 24.4346 105.124C24.4346 105.171 24.3994 105.279 24.3291 105.449C24.2588 105.619 24.1826 105.827 24.1006 106.073C24.0186 106.319 23.9424 106.592 23.8721 106.891C23.8018 107.189 23.7666 107.491 23.7666 107.796C23.7666 108.271 23.8428 108.687 23.9951 109.044C24.1475 109.407 24.3643 109.706 24.6455 109.94C24.9268 110.181 25.2666 110.359 25.665 110.477C26.0693 110.6 26.5205 110.661 27.0186 110.661C27.4932 110.661 27.9795 110.614 28.4775 110.521C28.9814 110.427 29.4619 110.301 29.9189 110.143C30.376 109.99 30.792 109.809 31.167 109.598C31.542 109.393 31.8408 109.176 32.0635 108.947C32.0342 108.871 31.958 108.798 31.835 108.728C31.7178 108.657 31.5654 108.593 31.3779 108.534C31.1963 108.47 30.9912 108.411 30.7627 108.358C30.5342 108.3 30.2998 108.247 30.0596 108.2C29.8193 108.153 29.582 108.112 29.3477 108.077C29.1191 108.042 28.9111 108.013 28.7236 107.989C28.5771 107.942 28.5039 107.837 28.5039 107.673C28.5039 107.608 28.5186 107.526 28.5479 107.427C28.583 107.327 28.624 107.222 28.6709 107.11C28.7178 106.999 28.7646 106.894 28.8115 106.794C28.8643 106.688 28.9111 106.604 28.9521 106.539C29.0752 106.334 29.251 106.155 29.4795 106.003C29.7139 105.851 29.9541 105.701 30.2002 105.555C30.4229 105.432 30.6484 105.314 30.877 105.203C31.1055 105.092 31.334 104.986 31.5625 104.887C31.4043 104.711 31.2754 104.532 31.1758 104.351C31.082 104.163 31.0352 103.97 31.0352 103.771C31.0352 103.606 31.0674 103.425 31.1318 103.226C31.1963 103.021 31.2842 102.83 31.3955 102.654C31.5127 102.473 31.6445 102.317 31.791 102.188C31.9434 102.06 32.1045 101.989 32.2744 101.978ZM44.5791 107.594C44.251 107.594 43.9463 107.562 43.665 107.497C43.3838 107.427 43.1318 107.31 42.9092 107.146C42.6924 106.981 42.5078 106.762 42.3555 106.486C42.2031 106.211 42.0889 105.865 42.0127 105.449H41.9775C41.9482 105.555 41.9102 105.666 41.8633 105.783C41.8223 105.9 41.7754 106.015 41.7227 106.126C41.6699 106.237 41.6143 106.34 41.5557 106.434C41.4971 106.527 41.4385 106.601 41.3799 106.653C40.9756 106.935 40.5186 107.143 40.0088 107.277C39.499 107.412 38.9951 107.479 38.4971 107.479C38.1338 107.479 37.8291 107.459 37.583 107.418C37.3428 107.371 37.1436 107.298 36.9854 107.198C36.833 107.099 36.7188 106.973 36.6426 106.82C36.5723 106.668 36.5283 106.48 36.5107 106.258C36.4873 106.094 36.4844 105.897 36.502 105.669C36.5137 105.481 36.5342 105.279 36.5635 105.062C36.5928 104.846 36.6221 104.661 36.6514 104.509C36.6631 104.462 36.6865 104.43 36.7217 104.412C36.7568 104.389 36.8213 104.377 36.915 104.377C37.0146 104.377 37.0791 104.389 37.1084 104.412C37.1436 104.43 37.167 104.462 37.1787 104.509C37.1904 104.638 37.2021 104.767 37.2139 104.896C37.2314 105.019 37.2637 105.145 37.3105 105.273C37.334 105.35 37.3721 105.426 37.4248 105.502C37.4775 105.572 37.5596 105.637 37.6709 105.695C37.7822 105.748 37.9287 105.792 38.1104 105.827C38.2979 105.856 38.5322 105.871 38.8135 105.871C39.1943 105.871 39.5811 105.824 39.9736 105.73C40.3662 105.637 40.7295 105.496 41.0635 105.309C41.1631 105.256 41.2422 105.191 41.3008 105.115C41.3652 105.039 41.415 104.945 41.4502 104.834C41.4854 104.723 41.5088 104.591 41.5205 104.438C41.5381 104.28 41.5498 104.093 41.5557 103.876C41.4912 103.595 41.415 103.272 41.3271 102.909C41.2451 102.546 41.166 102.194 41.0898 101.854C41.0137 101.515 40.9492 101.219 40.8965 100.967C40.8438 100.709 40.8174 100.545 40.8174 100.475C40.8174 100.346 40.8467 100.217 40.9053 100.088C40.9697 99.9531 41.0576 99.8008 41.1689 99.6309C41.2686 99.4844 41.3506 99.3701 41.415 99.2881C41.4854 99.2061 41.5498 99.168 41.6084 99.1738C41.667 99.1738 41.708 99.2119 41.7314 99.2881C41.8838 100.091 42.042 100.885 42.2061 101.67C42.376 102.455 42.5459 103.249 42.7158 104.052C42.7861 104.386 42.8711 104.682 42.9707 104.939C43.0703 105.191 43.1963 105.402 43.3486 105.572C43.5068 105.742 43.6973 105.871 43.9199 105.959C44.1426 106.041 44.4092 106.082 44.7197 106.082L44.5791 107.594ZM40.6504 97.416C40.9375 97.416 41.2217 97.4131 41.5029 97.4072C41.79 97.4014 42.0801 97.3896 42.373 97.3721C42.4727 97.3135 42.5225 97.2637 42.5225 97.2227C42.5225 97.1875 42.5049 97.1406 42.4697 97.082C42.4404 97.0234 42.3965 96.9648 42.3379 96.9062C42.2793 96.8477 42.2061 96.7979 42.1182 96.7568C42.0303 96.7158 41.9307 96.6953 41.8193 96.6953C41.7021 96.6953 41.5381 96.7656 41.3271 96.9062C41.1221 97.0469 40.8965 97.2168 40.6504 97.416ZM39.7012 97.416L39.9736 97.1787L39.7979 95.1396C39.792 95.0928 39.8066 95.0371 39.8418 94.9727C39.877 94.9082 39.9209 94.8496 39.9736 94.7969C40.0264 94.7383 40.0791 94.6885 40.1318 94.6475C40.1904 94.6064 40.2402 94.5859 40.2812 94.5859C40.375 94.5859 40.4277 94.6592 40.4395 94.8057L40.5625 96.7656C40.6914 96.666 40.8232 96.5693 40.958 96.4756C41.0986 96.376 41.2363 96.291 41.3711 96.2207C41.5059 96.1445 41.6348 96.083 41.7578 96.0361C41.8867 95.9893 42.0039 95.9658 42.1094 95.9658C42.2148 95.9658 42.3291 95.998 42.4521 96.0625C42.5752 96.127 42.6865 96.209 42.7861 96.3086C42.8916 96.4023 42.9795 96.5078 43.0498 96.625C43.1201 96.7422 43.1553 96.8564 43.1553 96.9678C43.1553 97.1201 43.1084 97.2783 43.0146 97.4424C42.9209 97.6006 42.8154 97.7529 42.6982 97.8994C42.6455 97.9697 42.5576 98.0283 42.4346 98.0752C42.3174 98.1221 42.1914 98.1514 42.0566 98.1631C41.8457 98.1689 41.6465 98.1748 41.459 98.1807C41.2773 98.1807 41.0957 98.1807 40.9141 98.1807C40.7324 98.1807 40.5479 98.1807 40.3604 98.1807C40.1729 98.1807 39.9736 98.1807 39.7627 98.1807C39.6865 98.1807 39.5986 98.1572 39.499 98.1104C39.4053 98.0576 39.3145 97.9961 39.2266 97.9258C39.1445 97.8555 39.0742 97.7852 39.0156 97.7148C38.957 97.6445 38.9277 97.5889 38.9277 97.5479C38.9277 97.46 38.9688 97.416 39.0508 97.416H39.7012ZM49.7998 107.594C49.2373 107.594 48.7539 107.477 48.3496 107.242C47.9512 107.008 47.6641 106.606 47.4883 106.038H47.4443C47.3564 106.202 47.2422 106.372 47.1016 106.548C46.9668 106.724 46.8379 106.861 46.7148 106.961C46.5801 107.061 46.4277 107.151 46.2578 107.233C46.0938 107.31 45.918 107.374 45.7305 107.427C45.543 107.479 45.3496 107.521 45.1504 107.55C44.957 107.579 44.7695 107.594 44.5879 107.594C44.5117 107.594 44.4297 107.582 44.3418 107.559C44.248 107.529 44.1631 107.491 44.0869 107.444C44.0107 107.392 43.9463 107.33 43.8936 107.26C43.8408 107.184 43.8145 107.099 43.8145 107.005V106.548C43.8145 106.466 43.8438 106.396 43.9023 106.337C43.9551 106.278 44.0254 106.231 44.1133 106.196C44.2012 106.155 44.3008 106.126 44.4121 106.108C44.5176 106.091 44.623 106.082 44.7285 106.082C44.875 106.082 45.0273 106.07 45.1855 106.047C45.3438 106.018 45.4961 105.982 45.6426 105.941C45.7891 105.895 45.9238 105.842 46.0469 105.783C46.1699 105.719 46.2754 105.648 46.3633 105.572C46.4688 105.49 46.5684 105.37 46.6621 105.212C46.7559 105.048 46.8408 104.866 46.917 104.667C46.999 104.462 47.0723 104.245 47.1367 104.017C47.2012 103.782 47.2598 103.551 47.3125 103.322C47.3242 103.27 47.3389 103.229 47.3564 103.199C47.374 103.164 47.4062 103.135 47.4531 103.111C47.5 103.088 47.5674 103.073 47.6553 103.067C47.749 103.056 47.875 103.05 48.0332 103.05C48.1738 103.05 48.2441 103.108 48.2441 103.226C48.2441 103.278 48.2324 103.36 48.209 103.472C48.1914 103.577 48.168 103.697 48.1387 103.832C48.1152 103.967 48.0859 104.104 48.0508 104.245C48.0215 104.386 47.9951 104.515 47.9717 104.632C48.0244 105.13 48.2207 105.496 48.5605 105.73C48.9004 105.965 49.3604 106.082 49.9404 106.082L49.7998 107.594ZM43.8496 109.51C43.9375 109.381 44.0283 109.275 44.1221 109.193C44.2158 109.111 44.3125 109.07 44.4121 109.07C44.4824 109.07 44.5615 109.088 44.6494 109.123C44.7373 109.164 44.8486 109.237 44.9834 109.343C45.2646 109.56 45.4053 109.771 45.4053 109.976C45.4053 110.04 45.3877 110.119 45.3525 110.213C45.3174 110.307 45.2588 110.415 45.1768 110.538C45.0771 110.673 44.9805 110.781 44.8867 110.863C44.7988 110.951 44.7021 110.995 44.5967 110.995C44.5322 110.995 44.4561 110.978 44.3682 110.942C44.2803 110.913 44.1689 110.84 44.0342 110.723C43.9053 110.623 43.8057 110.518 43.7354 110.406C43.6592 110.295 43.6211 110.189 43.6211 110.09C43.6211 110.008 43.6387 109.923 43.6738 109.835C43.709 109.747 43.7676 109.639 43.8496 109.51ZM45.7832 109.378C45.8652 109.249 45.9531 109.144 46.0469 109.062C46.1406 108.979 46.2402 108.938 46.3457 108.938C46.4102 108.938 46.4863 108.956 46.5742 108.991C46.6621 109.026 46.7764 109.1 46.917 109.211C47.1982 109.428 47.3389 109.639 47.3389 109.844C47.3389 109.908 47.3213 109.987 47.2861 110.081C47.251 110.175 47.1924 110.283 47.1104 110.406C47.0107 110.547 46.9141 110.655 46.8203 110.731C46.7266 110.813 46.6299 110.854 46.5303 110.854C46.4658 110.854 46.3896 110.837 46.3018 110.802C46.2139 110.767 46.0996 110.693 45.959 110.582C45.8359 110.477 45.7363 110.371 45.6602 110.266C45.584 110.16 45.5459 110.058 45.5459 109.958C45.5459 109.882 45.5605 109.8 45.5898 109.712C45.625 109.624 45.6895 109.513 45.7832 109.378ZM50.9512 99.2793C51.2324 99.4844 51.5225 99.7041 51.8213 99.9385C52.1201 100.173 52.416 100.422 52.709 100.686C53.0078 100.943 53.2979 101.213 53.5791 101.494C53.8604 101.775 54.1211 102.06 54.3613 102.347C54.4844 102.505 54.6104 102.681 54.7393 102.874C54.874 103.067 54.9941 103.272 55.0996 103.489C55.2051 103.706 55.29 103.929 55.3545 104.157C55.4248 104.38 55.46 104.6 55.46 104.816C55.46 105.068 55.4131 105.326 55.3193 105.59C55.2256 105.848 55.1055 106.097 54.959 106.337C54.8828 106.454 54.8037 106.554 54.7217 106.636C54.6455 106.712 54.5225 106.791 54.3525 106.873C54.1592 106.967 53.9248 107.058 53.6494 107.146C53.374 107.228 53.0518 107.304 52.6826 107.374C52.3135 107.438 51.8916 107.491 51.417 107.532C50.9424 107.573 50.4062 107.594 49.8086 107.594C49.7266 107.594 49.6416 107.582 49.5537 107.559C49.4658 107.529 49.3838 107.491 49.3076 107.444C49.2256 107.392 49.1611 107.33 49.1143 107.26C49.0615 107.184 49.0352 107.099 49.0352 107.005V106.548C49.0352 106.466 49.0645 106.396 49.123 106.337C49.1758 106.278 49.2461 106.231 49.334 106.196C49.416 106.155 49.5127 106.126 49.624 106.108C49.7295 106.091 49.835 106.082 49.9404 106.082C51.2119 106.082 52.2432 106 53.0342 105.836C53.8311 105.666 54.3877 105.432 54.7041 105.133C54.6514 104.863 54.5312 104.585 54.3438 104.298C54.1621 104.005 53.9365 103.715 53.667 103.428C53.4033 103.135 53.1074 102.848 52.7793 102.566C52.4512 102.279 52.1172 102.001 51.7773 101.731L51.6895 102.048C51.6309 102.218 51.5254 102.259 51.373 102.171C51.1504 102.054 50.9248 101.925 50.6963 101.784C50.4678 101.638 50.2861 101.485 50.1514 101.327C50.0518 101.216 49.9814 101.075 49.9404 100.905C49.8994 100.729 49.8789 100.545 49.8789 100.352C49.8789 100.088 49.9258 99.7861 50.0195 99.4463C50.1133 99.1064 50.2363 98.7842 50.3887 98.4795C50.4414 98.3857 50.5791 98.2627 50.8018 98.1104C51.0303 97.958 51.3145 97.791 51.6543 97.6094C52 97.4219 52.3867 97.2256 52.8145 97.0205C53.2422 96.8154 53.6875 96.6162 54.1504 96.4229L56.6904 95.3594C56.7432 95.3359 56.7871 95.3359 56.8223 95.3594C56.8633 95.377 56.8838 95.4121 56.8838 95.4648C56.8838 95.5293 56.8721 95.6084 56.8486 95.7021C56.8252 95.7959 56.7783 95.9248 56.708 96.0889C56.6084 96.3291 56.5205 96.5107 56.4443 96.6338C56.3682 96.7568 56.2861 96.8359 56.1982 96.8711C55.2607 97.2637 54.3408 97.6621 53.4385 98.0664C52.542 98.4707 51.7129 98.875 50.9512 99.2793ZM58.4922 107.356C58.4805 107.403 58.46 107.438 58.4307 107.462C58.4014 107.485 58.3369 107.497 58.2373 107.497C58.1377 107.497 58.0703 107.485 58.0352 107.462C58 107.438 57.9795 107.403 57.9736 107.356C57.9678 107.233 57.9678 107.075 57.9736 106.882C57.9795 106.688 57.9795 106.489 57.9736 106.284C57.9561 105.851 57.9297 105.394 57.8945 104.913C57.8594 104.427 57.8184 103.938 57.7715 103.445C57.7246 102.947 57.6777 102.455 57.6309 101.969C57.5898 101.477 57.5488 101.008 57.5078 100.562C57.4668 100.117 57.4346 99.7012 57.4111 99.3145C57.3877 98.9277 57.376 98.5908 57.376 98.3037C57.376 98.1514 57.4141 97.9932 57.4902 97.8291C57.5664 97.665 57.6631 97.498 57.7803 97.3281C57.874 97.1875 57.9619 97.0703 58.0439 96.9766C58.126 96.8828 58.1992 96.8359 58.2637 96.8359C58.334 96.8359 58.3691 96.8682 58.3691 96.9326C58.3867 97.3193 58.4102 97.7441 58.4395 98.207C58.4746 98.6641 58.5098 99.1357 58.5449 99.6221C58.5801 100.108 58.6152 100.595 58.6504 101.081C58.6914 101.567 58.7266 102.033 58.7559 102.479C58.7852 102.918 58.8086 103.328 58.8262 103.709C58.8496 104.084 58.8613 104.403 58.8613 104.667C58.8613 105.323 58.8203 105.883 58.7383 106.346C58.6562 106.809 58.5742 107.146 58.4922 107.356ZM97.1377 106.671C94.9932 107.526 92.6143 107.954 90.001 107.954C88.999 107.954 88.167 107.863 87.5049 107.682C86.8428 107.494 86.3125 107.245 85.9141 106.935C85.5156 106.624 85.2344 106.267 85.0703 105.862C84.9062 105.452 84.8242 105.027 84.8242 104.588C84.8242 104.102 84.8799 103.668 84.9912 103.287C85.1084 102.9 85.2402 102.566 85.3867 102.285C85.4277 102.203 85.4629 102.136 85.4922 102.083C85.5273 102.03 85.5625 101.992 85.5977 101.969C85.6387 101.939 85.6855 101.922 85.7383 101.916C85.7969 101.904 85.8701 101.898 85.958 101.898C86.0869 101.898 86.1748 101.913 86.2217 101.942C86.2744 101.966 86.3008 102.013 86.3008 102.083C86.3008 102.136 86.2744 102.218 86.2217 102.329C86.1748 102.44 86.1221 102.575 86.0635 102.733C86.0107 102.892 85.958 103.073 85.9053 103.278C85.8584 103.478 85.835 103.697 85.835 103.938C85.835 104.277 85.9111 104.597 86.0635 104.896C86.2217 105.188 86.4795 105.443 86.8369 105.66C87.1943 105.877 87.6631 106.047 88.2432 106.17C88.8232 106.293 89.5381 106.354 90.3877 106.354C90.7627 106.354 91.1523 106.343 91.5566 106.319C91.9668 106.29 92.377 106.252 92.7871 106.205C93.2031 106.152 93.6104 106.094 94.0088 106.029C94.4131 105.959 94.7969 105.883 95.1602 105.801C95.5234 105.719 95.8604 105.631 96.1709 105.537C96.4873 105.443 96.7598 105.344 96.9883 105.238C96.9824 105.045 96.959 104.849 96.918 104.649C96.877 104.45 96.8213 104.254 96.751 104.061C96.6807 103.861 96.5986 103.671 96.5049 103.489C96.417 103.308 96.3262 103.138 96.2324 102.979C96.1973 102.915 96.168 102.854 96.1445 102.795C96.127 102.736 96.1182 102.675 96.1182 102.61C96.1182 102.499 96.1416 102.373 96.1885 102.232C96.2412 102.086 96.3027 101.951 96.373 101.828C96.4434 101.699 96.5166 101.594 96.5928 101.512C96.6689 101.424 96.7334 101.38 96.7861 101.38C96.8506 101.38 96.9062 101.406 96.9531 101.459C97 101.506 97.0586 101.588 97.1289 101.705C97.2344 101.893 97.334 102.101 97.4277 102.329C97.5215 102.552 97.6035 102.786 97.6738 103.032C97.75 103.272 97.8086 103.519 97.8496 103.771C97.8906 104.022 97.9111 104.269 97.9111 104.509C97.9111 104.772 97.8818 105.045 97.8232 105.326C97.7705 105.607 97.6943 105.877 97.5947 106.135C97.5479 106.252 97.4834 106.36 97.4014 106.46C97.3252 106.56 97.2373 106.63 97.1377 106.671ZM89.7461 100.36C89.834 100.231 89.9248 100.126 90.0186 100.044C90.1123 99.9619 90.209 99.9209 90.3086 99.9209C90.3789 99.9209 90.458 99.9414 90.5459 99.9824C90.6338 100.018 90.7451 100.088 90.8799 100.193C91.1611 100.41 91.3018 100.621 91.3018 100.826C91.3018 100.891 91.2842 100.97 91.249 101.063C91.2139 101.157 91.1553 101.266 91.0732 101.389C90.9736 101.523 90.877 101.635 90.7832 101.723C90.6953 101.805 90.5986 101.846 90.4932 101.846C90.4287 101.846 90.3525 101.831 90.2646 101.802C90.1768 101.767 90.0654 101.69 89.9307 101.573C89.8018 101.474 89.6992 101.368 89.623 101.257C89.5527 101.146 89.5176 101.04 89.5176 100.94C89.5176 100.858 89.5352 100.773 89.5703 100.686C89.6055 100.598 89.6641 100.489 89.7461 100.36ZM91.6797 100.229C91.7617 100.1 91.8496 99.9941 91.9434 99.9121C92.0371 99.8301 92.1367 99.7891 92.2422 99.7891C92.3066 99.7891 92.3828 99.8066 92.4707 99.8418C92.5586 99.877 92.6729 99.9502 92.8135 100.062C93.0947 100.278 93.2354 100.489 93.2354 100.694C93.2354 100.759 93.2178 100.838 93.1826 100.932C93.1475 101.025 93.0889 101.134 93.0068 101.257C92.9072 101.397 92.8105 101.509 92.7168 101.591C92.623 101.667 92.5264 101.705 92.4268 101.705C92.3623 101.705 92.2861 101.688 92.1982 101.652C92.1104 101.617 91.9961 101.544 91.8555 101.433C91.7324 101.327 91.6328 101.222 91.5566 101.116C91.4805 101.011 91.4424 100.908 91.4424 100.809C91.4424 100.732 91.457 100.65 91.4863 100.562C91.5215 100.475 91.5859 100.363 91.6797 100.229ZM104.986 107.594C104.881 108.227 104.702 108.839 104.45 109.431C104.204 110.022 103.896 110.544 103.527 110.995C103.164 111.446 102.748 111.807 102.279 112.076C101.811 112.352 101.301 112.489 100.75 112.489C100.398 112.489 99.9941 112.437 99.5371 112.331C99.0859 112.231 98.6143 112.044 98.1221 111.769C97.9697 111.692 97.8672 111.616 97.8145 111.54C97.7676 111.47 97.7441 111.341 97.7441 111.153C97.7441 110.913 97.8027 110.793 97.9199 110.793C97.9668 110.793 98.043 110.822 98.1484 110.881C98.2539 110.939 98.3799 111.004 98.5264 111.074C98.6787 111.145 98.8457 111.209 99.0273 111.268C99.209 111.326 99.3994 111.355 99.5986 111.355C99.9326 111.355 100.267 111.306 100.601 111.206C100.935 111.106 101.257 110.969 101.567 110.793C101.884 110.617 102.18 110.406 102.455 110.16C102.736 109.92 102.988 109.659 103.211 109.378C103.434 109.103 103.621 108.812 103.773 108.508C103.932 108.197 104.043 107.887 104.107 107.576C103.92 107.576 103.697 107.57 103.439 107.559C103.182 107.547 102.927 107.526 102.675 107.497C102.388 107.462 102.121 107.397 101.875 107.304C101.635 107.204 101.424 107.075 101.242 106.917C101.066 106.759 100.929 106.571 100.829 106.354C100.729 106.132 100.68 105.88 100.68 105.599C100.68 105.165 100.744 104.755 100.873 104.368C101.008 103.981 101.181 103.642 101.392 103.349C101.608 103.056 101.849 102.824 102.112 102.654C102.382 102.484 102.651 102.399 102.921 102.399C103.243 102.399 103.53 102.499 103.782 102.698C104.04 102.897 104.26 103.167 104.441 103.507C104.623 103.841 104.767 104.23 104.872 104.676C104.983 105.121 105.051 105.59 105.074 106.082H106.419L106.278 107.594H104.986ZM103.958 106.029C103.876 105.355 103.709 104.834 103.457 104.465C103.205 104.09 102.915 103.902 102.587 103.902C102.44 103.902 102.303 103.935 102.174 103.999C102.051 104.063 101.942 104.148 101.849 104.254C101.761 104.359 101.688 104.477 101.629 104.605C101.576 104.734 101.544 104.86 101.532 104.983C101.55 105.159 101.608 105.312 101.708 105.44C101.808 105.569 101.954 105.678 102.147 105.766C102.341 105.854 102.587 105.921 102.886 105.968C103.185 106.009 103.542 106.029 103.958 106.029ZM111.499 107.594C110.937 107.594 110.453 107.477 110.049 107.242C109.65 107.008 109.363 106.606 109.188 106.038H109.144C109.056 106.202 108.941 106.372 108.801 106.548C108.666 106.724 108.537 106.861 108.414 106.961C108.279 107.061 108.127 107.151 107.957 107.233C107.793 107.31 107.617 107.374 107.43 107.427C107.242 107.479 107.049 107.521 106.85 107.55C106.656 107.579 106.469 107.594 106.287 107.594C106.211 107.594 106.129 107.582 106.041 107.559C105.947 107.529 105.862 107.491 105.786 107.444C105.71 107.392 105.646 107.33 105.593 107.26C105.54 107.184 105.514 107.099 105.514 107.005V106.548C105.514 106.466 105.543 106.396 105.602 106.337C105.654 106.278 105.725 106.231 105.812 106.196C105.9 106.155 106 106.126 106.111 106.108C106.217 106.091 106.322 106.082 106.428 106.082C106.574 106.082 106.727 106.07 106.885 106.047C107.043 106.018 107.195 105.982 107.342 105.941C107.488 105.895 107.623 105.842 107.746 105.783C107.869 105.719 107.975 105.648 108.062 105.572C108.168 105.49 108.268 105.37 108.361 105.212C108.455 105.048 108.54 104.866 108.616 104.667C108.698 104.462 108.771 104.245 108.836 104.017C108.9 103.782 108.959 103.551 109.012 103.322C109.023 103.27 109.038 103.229 109.056 103.199C109.073 103.164 109.105 103.135 109.152 103.111C109.199 103.088 109.267 103.073 109.354 103.067C109.448 103.056 109.574 103.05 109.732 103.05C109.873 103.05 109.943 103.108 109.943 103.226C109.943 103.278 109.932 103.36 109.908 103.472C109.891 103.577 109.867 103.697 109.838 103.832C109.814 103.967 109.785 104.104 109.75 104.245C109.721 104.386 109.694 104.515 109.671 104.632C109.724 105.13 109.92 105.496 110.26 105.73C110.6 105.965 111.06 106.082 111.64 106.082L111.499 107.594ZM107.236 109.492C107.336 109.346 107.438 109.226 107.544 109.132C107.655 109.044 107.77 109 107.887 109C107.957 109 108.042 109.021 108.142 109.062C108.247 109.103 108.376 109.185 108.528 109.308C108.681 109.425 108.798 109.539 108.88 109.65C108.968 109.768 109.012 109.888 109.012 110.011C109.012 110.081 108.991 110.166 108.95 110.266C108.909 110.365 108.839 110.485 108.739 110.626C108.64 110.778 108.534 110.901 108.423 110.995C108.317 111.089 108.206 111.136 108.089 111.136C108.024 111.136 107.939 111.115 107.834 111.074C107.734 111.039 107.605 110.96 107.447 110.837C107.301 110.72 107.187 110.6 107.104 110.477C107.022 110.359 106.981 110.248 106.981 110.143C106.981 110.055 106.999 109.958 107.034 109.853C107.075 109.753 107.143 109.633 107.236 109.492ZM111.508 107.594C111.432 107.594 111.35 107.582 111.262 107.559C111.168 107.529 111.083 107.491 111.007 107.444C110.931 107.392 110.866 107.33 110.813 107.26C110.761 107.184 110.734 107.099 110.734 107.005V106.548C110.734 106.466 110.764 106.396 110.822 106.337C110.875 106.278 110.945 106.231 111.033 106.196C111.121 106.155 111.221 106.126 111.332 106.108C111.438 106.091 111.543 106.082 111.648 106.082C111.9 106.082 112.152 106.07 112.404 106.047C112.656 106.018 112.899 105.977 113.134 105.924C113.368 105.871 113.588 105.807 113.793 105.73C113.998 105.654 114.18 105.569 114.338 105.476C114.297 105.142 114.212 104.784 114.083 104.403C113.96 104.017 113.758 103.604 113.477 103.164C113.43 103.1 113.392 103.041 113.362 102.988C113.339 102.936 113.327 102.871 113.327 102.795C113.327 102.695 113.351 102.578 113.397 102.443C113.45 102.303 113.512 102.171 113.582 102.048C113.652 101.919 113.726 101.811 113.802 101.723C113.878 101.635 113.942 101.591 113.995 101.591C114.042 101.591 114.086 101.608 114.127 101.644C114.168 101.679 114.227 101.755 114.303 101.872C114.414 102.036 114.525 102.232 114.637 102.461C114.748 102.684 114.848 102.927 114.936 103.19C115.029 103.454 115.105 103.732 115.164 104.025C115.223 104.318 115.252 104.614 115.252 104.913C115.252 105.171 115.223 105.432 115.164 105.695C115.111 105.959 115.044 106.202 114.962 106.425C114.921 106.542 114.871 106.636 114.812 106.706C114.76 106.776 114.678 106.844 114.566 106.908C114.203 107.102 113.755 107.266 113.222 107.4C112.694 107.529 112.123 107.594 111.508 107.594ZM112.606 98.1016C112.706 97.9551 112.809 97.8379 112.914 97.75C113.025 97.6562 113.14 97.6094 113.257 97.6094C113.327 97.6094 113.412 97.6299 113.512 97.6709C113.617 97.7119 113.746 97.7939 113.898 97.917C114.051 98.0342 114.168 98.1484 114.25 98.2598C114.338 98.3711 114.382 98.4912 114.382 98.6201C114.382 98.6904 114.361 98.7754 114.32 98.875C114.279 98.9746 114.209 99.0947 114.109 99.2354C114.01 99.3877 113.904 99.5107 113.793 99.6045C113.688 99.6982 113.576 99.7451 113.459 99.7451C113.395 99.7451 113.31 99.7275 113.204 99.6924C113.104 99.6514 112.976 99.5693 112.817 99.4463C112.671 99.3291 112.557 99.2119 112.475 99.0947C112.393 98.9717 112.352 98.8545 112.352 98.7432C112.352 98.6611 112.369 98.5703 112.404 98.4707C112.445 98.3652 112.513 98.2422 112.606 98.1016ZM126.168 106.293C126.25 106.287 126.314 106.24 126.361 106.152C126.414 106.064 126.44 105.962 126.44 105.845C126.411 105.669 126.353 105.467 126.265 105.238C126.183 105.01 126.08 104.79 125.957 104.579C125.84 104.368 125.705 104.181 125.553 104.017C125.406 103.853 125.254 103.744 125.096 103.691C124.99 103.691 124.876 103.732 124.753 103.814C124.636 103.891 124.521 103.987 124.41 104.104C124.305 104.222 124.211 104.348 124.129 104.482C124.047 104.617 123.994 104.74 123.971 104.852C124.006 104.986 124.108 105.136 124.278 105.3C124.454 105.458 124.656 105.61 124.885 105.757C125.113 105.897 125.345 106.021 125.579 106.126C125.819 106.226 126.016 106.281 126.168 106.293ZM129.174 107.594C128.77 107.594 128.427 107.529 128.146 107.4C127.864 107.266 127.592 107.046 127.328 106.741C127.275 106.882 127.214 107.022 127.144 107.163C127.073 107.298 126.994 107.421 126.906 107.532C126.818 107.638 126.725 107.726 126.625 107.796C126.525 107.86 126.423 107.893 126.317 107.893C126.095 107.893 125.831 107.843 125.526 107.743C125.228 107.644 124.935 107.515 124.647 107.356C124.366 107.192 124.117 107.014 123.9 106.82C123.684 106.621 123.549 106.425 123.496 106.231C123.426 106.044 123.376 105.859 123.347 105.678C123.323 105.49 123.309 105.297 123.303 105.098C122.992 105.262 122.69 105.452 122.397 105.669C122.11 105.886 121.885 106.105 121.721 106.328C121.773 106.762 121.847 107.222 121.94 107.708C122.034 108.194 122.128 108.692 122.222 109.202C122.321 109.718 122.406 110.236 122.477 110.758C122.547 111.279 122.582 111.795 122.582 112.305C122.582 112.557 122.556 112.814 122.503 113.078C122.45 113.342 122.389 113.562 122.318 113.737C122.301 113.784 122.277 113.816 122.248 113.834C122.219 113.857 122.154 113.869 122.055 113.869C121.879 113.869 121.791 113.825 121.791 113.737C121.791 113.427 121.782 113.113 121.765 112.797C121.753 112.48 121.721 112.155 121.668 111.821C121.633 111.581 121.586 111.314 121.527 111.021C121.475 110.734 121.413 110.436 121.343 110.125C121.278 109.814 121.211 109.504 121.141 109.193C121.076 108.883 121.018 108.587 120.965 108.306C120.912 108.024 120.868 107.767 120.833 107.532C120.798 107.298 120.78 107.104 120.78 106.952C120.792 106.612 120.862 106.278 120.991 105.95C121.12 105.622 121.29 105.314 121.501 105.027C121.712 104.734 121.958 104.465 122.239 104.219C122.526 103.973 122.831 103.756 123.153 103.568C123.329 103.398 123.514 103.24 123.707 103.094C123.906 102.947 124.1 102.821 124.287 102.716C124.475 102.61 124.65 102.528 124.814 102.47C124.979 102.405 125.119 102.373 125.236 102.373C125.436 102.373 125.611 102.417 125.764 102.505C125.922 102.593 126.086 102.736 126.256 102.936C126.426 103.135 126.613 103.398 126.818 103.727C127.023 104.049 127.272 104.447 127.565 104.922C127.671 105.104 127.779 105.268 127.891 105.414C128.002 105.555 128.125 105.675 128.26 105.774C128.395 105.874 128.547 105.95 128.717 106.003C128.893 106.056 129.092 106.082 129.314 106.082L129.174 107.594ZM134.386 107.594C133.823 107.594 133.34 107.477 132.936 107.242C132.537 107.008 132.25 106.606 132.074 106.038H132.03C131.942 106.202 131.828 106.372 131.688 106.548C131.553 106.724 131.424 106.861 131.301 106.961C131.166 107.061 131.014 107.151 130.844 107.233C130.68 107.31 130.504 107.374 130.316 107.427C130.129 107.479 129.936 107.521 129.736 107.55C129.543 107.579 129.355 107.594 129.174 107.594C129.098 107.594 129.016 107.582 128.928 107.559C128.834 107.529 128.749 107.491 128.673 107.444C128.597 107.392 128.532 107.33 128.479 107.26C128.427 107.184 128.4 107.099 128.4 107.005V106.548C128.4 106.466 128.43 106.396 128.488 106.337C128.541 106.278 128.611 106.231 128.699 106.196C128.787 106.155 128.887 106.126 128.998 106.108C129.104 106.091 129.209 106.082 129.314 106.082C129.461 106.082 129.613 106.07 129.771 106.047C129.93 106.018 130.082 105.982 130.229 105.941C130.375 105.895 130.51 105.842 130.633 105.783C130.756 105.719 130.861 105.648 130.949 105.572C131.055 105.49 131.154 105.37 131.248 105.212C131.342 105.048 131.427 104.866 131.503 104.667C131.585 104.462 131.658 104.245 131.723 104.017C131.787 103.782 131.846 103.551 131.898 103.322C131.91 103.27 131.925 103.229 131.942 103.199C131.96 103.164 131.992 103.135 132.039 103.111C132.086 103.088 132.153 103.073 132.241 103.067C132.335 103.056 132.461 103.05 132.619 103.05C132.76 103.05 132.83 103.108 132.83 103.226C132.83 103.278 132.818 103.36 132.795 103.472C132.777 103.577 132.754 103.697 132.725 103.832C132.701 103.967 132.672 104.104 132.637 104.245C132.607 104.386 132.581 104.515 132.558 104.632C132.61 105.13 132.807 105.496 133.146 105.73C133.486 105.965 133.946 106.082 134.526 106.082L134.386 107.594ZM129.754 100.053C129.842 99.9238 129.933 99.8184 130.026 99.7363C130.12 99.6543 130.217 99.6133 130.316 99.6133C130.387 99.6133 130.466 99.6338 130.554 99.6748C130.642 99.71 130.753 99.7803 130.888 99.8857C131.169 100.103 131.31 100.313 131.31 100.519C131.31 100.583 131.292 100.662 131.257 100.756C131.222 100.85 131.163 100.958 131.081 101.081C130.981 101.216 130.885 101.327 130.791 101.415C130.703 101.497 130.606 101.538 130.501 101.538C130.437 101.538 130.36 101.523 130.272 101.494C130.185 101.459 130.073 101.383 129.938 101.266C129.81 101.166 129.707 101.061 129.631 100.949C129.561 100.838 129.525 100.732 129.525 100.633C129.525 100.551 129.543 100.466 129.578 100.378C129.613 100.29 129.672 100.182 129.754 100.053ZM131.688 99.9209C131.77 99.792 131.857 99.6865 131.951 99.6045C132.045 99.5225 132.145 99.4814 132.25 99.4814C132.314 99.4814 132.391 99.499 132.479 99.5342C132.566 99.5693 132.681 99.6426 132.821 99.7539C133.103 99.9707 133.243 100.182 133.243 100.387C133.243 100.451 133.226 100.53 133.19 100.624C133.155 100.718 133.097 100.826 133.015 100.949C132.915 101.09 132.818 101.201 132.725 101.283C132.631 101.359 132.534 101.397 132.435 101.397C132.37 101.397 132.294 101.38 132.206 101.345C132.118 101.31 132.004 101.236 131.863 101.125C131.74 101.02 131.641 100.914 131.564 100.809C131.488 100.703 131.45 100.601 131.45 100.501C131.45 100.425 131.465 100.343 131.494 100.255C131.529 100.167 131.594 100.056 131.688 99.9209ZM144.897 103.946C144.897 103.987 144.883 104.061 144.854 104.166C144.824 104.271 144.774 104.406 144.704 104.57C144.599 104.799 144.508 104.975 144.432 105.098C144.355 105.215 144.282 105.273 144.212 105.273C144.054 105.273 143.872 105.253 143.667 105.212C143.462 105.171 143.263 105.15 143.069 105.15C142.812 105.15 142.533 105.191 142.234 105.273C141.941 105.355 141.64 105.461 141.329 105.59C141.024 105.719 140.72 105.859 140.415 106.012C140.11 106.158 139.823 106.296 139.554 106.425C139.22 106.589 138.88 106.744 138.534 106.891C138.188 107.031 137.811 107.154 137.4 107.26C136.996 107.365 136.548 107.447 136.056 107.506C135.569 107.564 135.016 107.594 134.395 107.594C134.318 107.594 134.236 107.582 134.148 107.559C134.055 107.529 133.97 107.491 133.894 107.444C133.817 107.392 133.753 107.33 133.7 107.26C133.647 107.184 133.621 107.099 133.621 107.005V106.548C133.621 106.466 133.65 106.396 133.709 106.337C133.762 106.278 133.832 106.231 133.92 106.196C134.008 106.155 134.107 106.126 134.219 106.108C134.324 106.091 134.43 106.082 134.535 106.082C135.145 106.082 135.681 106.062 136.144 106.021C136.612 105.974 137.034 105.912 137.409 105.836C137.784 105.76 138.127 105.672 138.438 105.572C138.748 105.473 139.047 105.367 139.334 105.256C139.621 105.139 139.911 105.024 140.204 104.913C140.503 104.796 140.828 104.682 141.18 104.57V104.526C140.816 104.415 140.456 104.292 140.099 104.157C139.741 104.022 139.39 103.896 139.044 103.779C138.704 103.656 138.37 103.557 138.042 103.48C137.72 103.398 137.409 103.357 137.11 103.357C136.841 103.357 136.624 103.384 136.46 103.437C136.296 103.489 136.161 103.548 136.056 103.612C135.956 103.671 135.874 103.727 135.81 103.779C135.745 103.826 135.678 103.85 135.607 103.85C135.561 103.85 135.528 103.835 135.511 103.806C135.499 103.771 135.493 103.7 135.493 103.595C135.493 103.501 135.496 103.428 135.502 103.375C135.508 103.322 135.525 103.275 135.555 103.234C135.801 102.76 136.076 102.42 136.381 102.215C136.686 102.01 137.04 101.907 137.444 101.907C137.69 101.907 137.934 101.931 138.174 101.978C138.42 102.024 138.669 102.089 138.921 102.171C139.179 102.253 139.445 102.347 139.721 102.452C139.996 102.558 140.289 102.672 140.6 102.795C140.998 102.959 141.373 103.105 141.725 103.234C142.082 103.363 142.428 103.472 142.762 103.56C143.096 103.647 143.427 103.715 143.755 103.762C144.089 103.803 144.429 103.823 144.774 103.823C144.856 103.823 144.897 103.864 144.897 103.946ZM139.026 99.0596C139.126 98.9131 139.229 98.7959 139.334 98.708C139.445 98.6143 139.56 98.5674 139.677 98.5674C139.747 98.5674 139.832 98.5879 139.932 98.6289C140.037 98.6699 140.166 98.752 140.318 98.875C140.471 98.9922 140.588 99.1064 140.67 99.2178C140.758 99.3291 140.802 99.4492 140.802 99.5781C140.802 99.6484 140.781 99.7334 140.74 99.833C140.699 99.9326 140.629 100.053 140.529 100.193C140.43 100.346 140.324 100.469 140.213 100.562C140.107 100.656 139.996 100.703 139.879 100.703C139.814 100.703 139.729 100.686 139.624 100.65C139.524 100.609 139.396 100.527 139.237 100.404C139.091 100.287 138.977 100.17 138.895 100.053C138.812 99.9297 138.771 99.8125 138.771 99.7012C138.771 99.6191 138.789 99.5283 138.824 99.4287C138.865 99.3232 138.933 99.2002 139.026 99.0596Z" fill="#F8AE55"/>
</g>
<path d="M9.6875 76.1548C18.2609 73.4442 30.5544 70.5211 42.5088 69.6127C55.3931 68.631 66.3206 70.0742 72.6562 75.1218V146.521C63.5984 142.638 52.1188 142.104 41.5303 142.909C30.0991 143.789 18.5709 146.287 9.6875 148.851V76.1548ZM82.3438 75.1218C88.6794 70.0742 99.6069 68.631 112.491 69.6127C124.446 70.5211 136.739 73.4442 145.312 76.1548V148.851C136.419 146.287 124.901 143.781 113.47 142.917C102.872 142.104 91.4016 142.631 82.3438 146.521V75.1218ZM77.5 68.4991C67.9578 62.294 54.1241 61.3709 41.5303 62.3233C26.8634 63.4442 12.0609 67.2464 2.83844 70.4185C1.99222 70.7096 1.27464 71.1786 0.771328 71.7697C0.268021 72.3608 0.000257411 73.0489 0 73.7519L0 154.338C0.000224382 154.951 0.203797 155.554 0.592072 156.092C0.980346 156.63 1.54091 157.086 2.22242 157.417C2.90392 157.749 3.68459 157.946 4.4929 157.99C5.30121 158.035 6.11134 157.925 6.84906 157.671C15.3934 154.741 29.1594 151.217 42.4991 150.199C56.1488 149.159 67.5897 150.836 73.7219 156.624C74.1757 157.052 74.7509 157.397 75.4048 157.634C76.0587 157.871 76.7747 157.994 77.5 157.994C78.2253 157.994 78.9413 157.871 79.5952 157.634C80.2491 157.397 80.8243 157.052 81.2781 156.624C87.4103 150.836 98.8513 149.159 112.491 150.199C125.841 151.217 139.616 154.741 148.151 157.671C148.889 157.925 149.699 158.035 150.507 157.99C151.315 157.946 152.096 157.749 152.778 157.417C153.459 157.086 154.02 156.63 154.408 156.092C154.796 155.554 155 154.951 155 154.338V73.7519C155 73.0489 154.732 72.3608 154.229 71.7697C153.725 71.1786 153.008 70.7096 152.162 70.4185C142.939 67.2464 128.137 63.4442 113.47 62.3233C100.876 61.3636 87.0422 62.294 77.5 68.4991Z" fill="#C49774"/>
<defs>
<clipPath id="clip0_304_459">
<rect width="155" height="120" fill="white" transform="translate(0 49)"/>
</clipPath>
</defs>
</svg>
